<?xml version="1.0" encoding="UTF-8"?>
<!DOCTYPE svg PUBLIC "-//W3C//DTD SVG 1.1//EN" "http://www.w3.org/Graphics/SVG/1.1/DTD/svg11.dtd">
<!-- Creator: CorelDRAW 2019 (64-Bit) -->
<svg xmlns="http://www.w3.org/2000/svg" xml:space="preserve" width="100px" height="100px" version="1.1" style="shape-rendering:geometricPrecision; text-rendering:geometricPrecision; image-rendering:optimizeQuality; fill-rule:evenodd; clip-rule:evenodd"
viewBox="0 0 100 100"
 xmlns:xlink="http://www.w3.org/1999/xlink"
 xmlns:xodm="http://www.corel.com/coreldraw/odm/2003">
 <defs>
  <style type="text/css">
   <![CDATA[
    .fil4 {fill:#168D4B}
    .fil3 {fill:#1A5994}
    .fil0 {fill:#1B73CD}
    .fil2 {fill:#612D7D}
    .fil1 {fill:#C4262B}
    .fil5 {fill:#F5B51A}
    .fil6 {fill:#FDF5CA}
   ]]>
  </style>
 </defs>
 <g id="Layer_x0020_1">
  <metadata id="CorelCorpID_0Corel-Layer"/>
  <g id="_1764408053040">
   <path class="fil0" d="M54.855 47.772c-0.389,-1.812 -0.885,-2.991 -1.897,-4.482 -0.215,-0.318 -0.187,-0.315 -0.521,-0.448 0.112,2.169 0.433,3.123 -0.899,4.794 -0.856,1.074 -2.199,1.742 -3.707,2.172 -5.013,1.429 -7.955,-2.158 -8.716,-2.444 0.488,2.348 4.988,4.859 6.952,6.244 5.25,3.702 1.966,7.668 1.809,8.856 0.718,-0.36 3.109,-3.051 3.592,-3.733 2.28,-3.224 4.351,-6.465 3.387,-10.959z"/>
   <path class="fil0" d="M45.706 46.512c0.177,0.873 1.166,1.799 2.426,1.52 0.92,-0.204 1.683,-1.176 1.474,-2.48 -0.398,-2.487 -4.5,-2.006 -3.9,0.96z"/>
   <path class="fil1" d="M13.532 42.845c0.91,-0.153 0.903,-0.514 2.203,-0.352 2.708,0.338 5.245,3.583 6.466,5.79 0.745,1.349 0.407,1.22 1.738,3.244 1.014,1.543 3.216,4.137 4.869,4.933 0.389,0.188 1.305,0.497 1.807,0.634 0.666,0.182 1.202,0.351 1.879,0.595 0.522,0.187 3.36,1.2 3.775,1.131 0.52,-1.592 -0.269,-1.631 -2.76,-2.546 -1.253,-0.46 -3.058,-0.974 -3.531,-2.094 0.187,0.031 1.12,0.535 1.536,0.666 1.016,0.32 4.608,1.601 5.188,1.536 0.994,-2.097 -2.505,-2.585 -3.841,-3.098 -1.89,-0.727 -3.541,-1.167 -4.415,-2.794 0.635,0.21 1.507,1.105 3.529,1.536 0.751,0.16 1.425,0.421 2.027,0.593 1.296,0.369 2.434,1.041 2.006,-0.336 -0.238,-0.763 -0.92,-1.2 -1.692,-1.435 -2.772,-0.842 -6.399,-2.195 -8.357,-4.172 -2.243,-2.266 -0.336,-4.965 1.793,-4.607 0.624,0.105 0.839,0.337 1.369,0.657 0.479,0.289 0.896,0.55 1.383,0.78 1.101,0.522 2.592,0.137 2.984,-0.912l-0.39 -0.122c-3.182,-0.72 -4.031,-3.643 -9.976,-5.386 -2.726,-0.799 -4.136,-0.421 -6.197,1.011 -0.87,0.604 -1.4,1.25 -1.995,2.022 -0.432,0.561 -1.333,1.922 -1.398,2.726z"/>
   <path class="fil2" d="M41.495 42.789c1.932,0.005 1.466,-1.486 1.569,-3.234 0.041,-0.688 0.042,-1.634 0.122,-2.348 0.063,-0.572 0.331,-1.361 0.797,-1.701 -0.033,0.55 -0.157,0.985 -0.157,1.7 0,0.588 -0.003,1.175 -0.002,1.763 0.001,0.907 -0.097,2.696 0.058,3.498 2.939,0.313 1.338,-4.223 2.065,-7.483 0.143,-0.642 0.606,-1.848 1.113,-2.067 -0.138,1.511 -0.427,0.458 -0.375,3.799 0.011,0.75 -0.048,3.566 0.204,4.006 0.312,0.321 1.541,-0.402 1.585,-2.045 0.036,-1.319 -0.001,-2.54 0.102,-3.824 0.138,-1.715 0.775,-4.9 1.668,-6.144 1.349,-1.88 4.472,-1.337 4.604,1.048 0.066,1.2 -0.595,2.061 -0.526,3.437 0.054,1.104 0.83,1.999 1.868,2.051 -0.217,-2.331 0.369,-3.557 1.283,-5.961 0.468,-1.233 1.003,-5.167 0.677,-6.704 -0.448,-2.12 -1.508,-3.46 -3.015,-4.502 -1.257,-0.868 -3.764,-1.889 -5.582,-1.912 0.224,0.466 2.774,1.642 0.133,6.696 -1.474,2.822 -2.469,3.17 -4.283,5.112 -1.292,1.382 -2.812,3.784 -3.564,5.75 -0.528,1.381 -0.401,2.75 -0.396,4.364 0.004,1.097 -0.141,3.804 0.052,4.701z"/>
   <path class="fil3" d="M72.108 82.134c-0.826,-0.07 -1.278,-0.051 -1.877,-0.484 -1.278,-0.926 -1.964,-3.119 -2.194,-4.665 -0.588,-3.951 0.492,-5.196 0.488,-8.333 -0.001,-1.383 -0.083,-2.969 -0.348,-4.268 -0.331,-1.624 -0.59,-1.977 -1.414,-3.17 -0.585,-0.847 -1.208,-1.77 -1.909,-2.691 -0.502,-0.659 -1.481,-2.229 -1.898,-2.556 -0.826,0.181 -1.065,1.086 -0.599,1.82 0.982,1.544 2.936,3.824 2.855,5.485 -0.322,-0.153 -0.084,0.026 -0.296,-0.403 -0.378,-0.766 -2.091,-3.042 -2.661,-3.803 -0.308,-0.411 -0.673,-1.075 -1.062,-1.332 -1.091,0.105 -1.01,1.536 -0.554,2.359 0.3,0.542 1.07,1.458 1.476,2.054 0.437,0.641 0.932,1.312 1.408,2.117 0.377,0.637 0.818,1.787 0.742,2.427 -0.036,0.302 -0.008,0.177 -0.133,0.313 -0.178,-0.34 -0.262,-0.655 -0.427,-0.968 -0.58,-1.102 -3.647,-5.08 -3.982,-5.306 -0.496,0.194 -0.59,1.032 -0.524,1.659 0.137,1.284 4.254,5.343 4.879,9.509 0.421,2.8 -2.626,4.375 -4.289,2.463 -0.924,-1.062 -1.15,-4.716 -4.235,-3.714 0.127,0.348 0.01,0.153 0.254,0.455 0.056,0.07 0.162,0.168 0.237,0.25 0.663,0.733 1.03,2.358 1.468,3.417 0.204,0.491 0.237,1.018 0.416,1.572 0.462,1.438 1.896,3.888 2.804,5.019 1.337,1.665 2.646,2.535 5.358,2.47 1.224,-0.029 2.293,-0.229 3.356,-0.569 0.489,-0.155 2.505,-0.814 2.661,-1.127z"/>
   <path class="fil4" d="M58.459 41.528c-0.171,2.086 2.389,0.909 3.484,0.618 1.158,-0.308 3.146,-1.157 4.302,-0.434 -0.228,0.104 -0.718,0.081 -0.978,0.147 -1.563,0.397 -2.845,0.986 -4.146,1.349 -0.449,0.126 -1.18,0.366 -1.579,0.565 -0.049,2.49 3.866,0.656 4.628,0.431 0.889,-0.262 1.763,-0.561 2.688,-0.739 0.674,-0.13 2.441,-0.177 2.734,0.355 -1.62,0.043 -2.848,0.372 -4.101,0.923 -0.776,0.342 -3.153,1.129 -3.515,1.364 0.469,1.051 1.517,1.206 2.706,0.855 1.007,-0.298 1.824,-0.692 2.956,-0.966 1.727,-0.419 4.891,-1.137 6.864,-0.541 2.212,0.667 2.759,3.788 0.517,4.699 -1.34,0.544 -5.104,-0.228 -4.807,3.008 0.56,-0.076 0.643,-0.663 2.929,-0.686 4.003,-0.041 5.117,0.298 9.335,-1.322 5.017,-1.927 4.009,-9.725 3.697,-10.219 -0.196,0.194 -0.25,0.47 -0.422,0.741 -0.159,0.251 -0.317,0.439 -0.545,0.636 -0.433,0.373 -0.911,0.576 -1.565,0.71 -2.511,0.516 -5.326,0.049 -7.674,-1.193 -1.035,-0.547 -1.905,-1.061 -3.033,-1.475 -1.629,-0.598 -5.694,-1.757 -7.614,-1.075 -0.331,0.117 -0.509,0.246 -0.823,0.32 -0.429,0.103 -0.583,0.12 -0.962,0.256 -0.583,0.208 -1.123,0.394 -1.684,0.56l-3.392 1.113z"/>
   <path class="fil5" d="M45.251 74.137c0.206,-0.368 -0.032,-0.062 0.275,-0.3l0.711 -0.447c0.442,-0.42 1.093,-1.33 1.48,-1.843 0.267,-0.355 0.469,-0.655 0.686,-0.99 0.214,-0.329 0.447,-0.622 0.695,-0.971l1.054 -1.495c0.457,-0.611 0.861,-0.968 0.869,-1.617 -1.498,-1.141 -2.147,1.069 -3.427,2.395 -0.654,0.678 -1.107,1.94 -2.563,2.22l0.519 -0.741c0.298,-0.302 0.258,-0.296 0.518,-0.657l2.572 -3.601c0.401,-0.655 0.171,-1.143 -0.772,-1.102 -0.404,0.018 -0.371,0.062 -0.596,0.226 -0.99,0.722 -0.647,0.347 -1.647,1.864 -0.144,0.218 -0.047,0.088 -0.228,0.281 -0.44,0.471 -0.147,0.33 -0.511,0.762l-1.185 1.556c-0.894,1.124 -1.199,1.1 -1.97,1.561 -0.564,0.337 -0.603,0.063 -0.609,0.059 0.198,-0.476 0.085,0.078 0.677,-0.68 0.186,-0.237 0.429,-0.422 0.667,-0.706 0.83,-0.99 1.287,-1.911 1.877,-2.836 0.178,-0.278 1.168,-1.482 1.238,-2.047 -0.533,-0.221 -0.988,-0.188 -1.501,0.033 -0.515,0.22 -0.735,0.543 -1.017,0.943l-0.968 1.378c-0.013,0.017 -0.032,0.039 -0.045,0.056 -0.095,0.12 -0.127,0.134 -0.221,0.265 -0.83,1.174 -3.408,4.172 -4.418,4.406 -0.169,0.094 -0.384,0.328 -0.589,0.482 -0.221,0.165 -0.565,0.334 -0.746,0.412 -1.509,0.654 -3.487,-0.447 -3.616,-1.993 -0.174,-2.089 1.7,-2.57 2.3,-3.417l0.482 -0.692c0.487,-0.664 0.383,-2.209 -0.402,-2.484 -0.371,0.311 -0.445,0.967 -1.441,1.713 -0.201,0.151 -0.334,0.292 -0.538,0.441 -1.817,1.33 -3.504,2.438 -4.995,4.217l-1.038 1.408c-1.61,1.907 -1.879,4.001 -0.978,6.628 0.377,1.098 2.462,4.417 3.389,4.704 0.006,-0.582 -0.314,-1.157 0.079,-1.788 0.379,-0.606 0.076,-0.141 0.341,-0.836 0.223,-0.581 1.133,-1.258 1.603,-1.626 1.396,-1.092 1.654,-1.046 3.044,-1.754 1.532,-0.781 3.559,-0.694 5.27,-1.178 1.668,-0.472 3.07,-0.882 4.648,-1.736 0.284,-0.154 0.688,-0.45 1.027,-0.473z"/>
   <path class="fil6" d="M37.411 72.109c1.01,-0.234 3.588,-3.232 4.418,-4.406 0.094,-0.131 0.126,-0.145 0.221,-0.265 0.013,-0.017 0.032,-0.039 0.045,-0.056l0.968 -1.378c0.282,-0.4 0.502,-0.723 1.017,-0.943 0.513,-0.221 0.968,-0.254 1.501,-0.033 -0.07,0.565 -1.06,1.769 -1.238,2.047 -0.59,0.925 -1.047,1.846 -1.877,2.836 -0.238,0.284 -0.481,0.469 -0.667,0.706 -0.592,0.758 -0.479,0.204 -0.677,0.68 0.006,0.004 0.045,0.278 0.609,-0.059 0.771,-0.461 1.076,-0.437 1.97,-1.561l1.185 -1.556c0.364,-0.432 0.071,-0.291 0.511,-0.762 0.181,-0.193 0.084,-0.063 0.228,-0.281 1,-1.517 0.657,-1.142 1.647,-1.864 0.225,-0.164 0.192,-0.208 0.596,-0.226 0.943,-0.041 1.173,0.447 0.772,1.102l-2.572 3.601c-0.26,0.361 -0.22,0.355 -0.518,0.657l-0.519 0.741c1.456,-0.28 1.909,-1.542 2.563,-2.22 1.28,-1.326 1.929,-3.536 3.427,-2.395 -0.008,0.649 -0.412,1.006 -0.869,1.617l-1.054 1.495c-0.248,0.349 -0.481,0.642 -0.695,0.971 -0.217,0.335 -0.419,0.635 -0.686,0.99 -0.387,0.513 -1.038,1.423 -1.48,1.843l-0.711 0.447c-0.307,0.238 -0.069,-0.068 -0.275,0.3 0.918,-0.019 0.932,-0.357 1.43,-0.793 0.467,-0.408 0.299,0.023 0.557,-0.519l1.643 -2.169c0.228,-0.456 -0.122,-0.107 0.392,-0.696l0.705 -0.837c0.011,-0.021 0.02,-0.05 0.031,-0.071l0.212 -0.299c0.383,-0.509 0.047,-0.534 0.653,-0.931 0.62,-0.408 -0.024,-0.022 0.464,-0.699 0.013,-0.018 0.036,-0.037 0.048,-0.054 0.302,-0.399 -0.003,0.286 0.137,-0.203 0.013,-0.043 -0.019,-0.249 -0.027,-0.269l-0.334 -0.45c-0.264,-0.265 -0.494,-0.326 -0.909,-0.274 -0.364,0.047 0.084,0.082 -0.49,0.044 -0.122,-0.008 -0.228,-0.055 -0.475,-0.057l0.002 -0.682c-0.466,-0.109 -0.769,-0.443 -1.525,-0.412 -0.837,0.035 -0.355,0.412 -1.37,0.55 -0.105,0.357 -0.821,1.439 -0.955,1.593 -0.314,0.363 -0.153,0.021 -0.448,0.521l-0.199 0.298c-0.269,-0.267 -0.207,0.384 -0.185,-0.44 0.009,-0.348 0.885,-1.19 1.019,-1.451 0.428,-0.833 0.066,-1.302 -0.611,-1.348 -0.639,-0.042 -1.042,0.209 -1.497,0.514 -0.671,0.451 -0.379,0.423 -0.66,0.688 -0.23,0.218 0.22,0.1 -0.416,0.181 0.095,0.114 0.047,-0.337 0.048,0.163 0.001,0.574 -0.524,0.459 -0.739,1.06 -0.171,0.48 -0.43,0.884 -0.82,1.276 -0.374,0.375 -0.215,0.303 -0.39,0.521 -0.171,0.214 -0.212,0.168 -0.394,0.282 -0.456,0.286 -0.304,0.394 -0.781,0.778l-1 0.619c0.201,0.485 -0.144,0.188 -0.529,0.334l0.163 0.49c-0.376,0.315 -0.423,-0.033 -0.59,0.714z"/>
  </g>
 </g>
</svg>
